<svg xmlns="http://www.w3.org/2000/svg" version="1.1" xmlns:xlink="http://www.w3.org/1999/xlink" xmlns:svgjs="http://svgjs.dev/svgjs" width="150" height="50" viewBox="0 0 2000 479"><g transform="matrix(1,0,0,1,-1.2121212121212466,-0.08943399465570678)"><svg viewBox="0 0 396 95" data-background-color="#ffffff" preserveAspectRatio="xMidYMid meet" height="479" width="2000" xmlns="http://www.w3.org/2000/svg" xmlns:xlink="http://www.w3.org/1999/xlink"><g id="tight-bounds" transform="matrix(1,0,0,1,0.2400000000000091,0.017737431090381506)"><svg viewBox="0 0 395.52 94.96450562323243" height="94.96450562323243" width="395.52"><g><svg viewBox="0 0 596.3337732465228 143.1799705774495" height="94.96450562323243" width="395.52"><g transform="matrix(1,0,0,1,200.81377324652283,10.556882951899595)"><svg viewBox="0 0 395.52 122.0662046736503" height="122.0662046736503" width="395.52"><g id="textblocktransform"><svg viewBox="0 0 395.52 122.0662046736503" height="122.0662046736503" width="395.52" id="textblock"><g><svg viewBox="0 0 395.52 122.0662046736503" height="122.0662046736503" width="395.52"><g transform="matrix(1,0,0,1,0,0)"><svg width="395.52" viewBox="2 -37.7 124.09 38.300000000000004" height="122.0662046736503" data-palette-color="#f3a83c"><path d="M26.1-34.8L31-34.8 18.7-12.7 18.7 0 14.3 0 14.3-12.7 2-34.8 7.15-34.8 16.5-17.4 26.1-34.8ZM46 0.6Q40.3 0.6 37.1-3.13 33.9-6.85 33.9-13.05L33.9-13.05Q33.9-19.25 37.1-22.98 40.3-26.7 46-26.7L46-26.7Q51.7-26.7 54.9-22.98 58.1-19.25 58.1-13.05L58.1-13.05Q58.1-6.85 54.9-3.13 51.7 0.6 46 0.6L46 0.6ZM46-3.2Q49.65-3.2 51.5-5.9 53.35-8.6 53.35-13.05L53.35-13.05Q53.35-17.5 51.5-20.2 49.65-22.9 46-22.9L46-22.9Q42.35-22.9 40.52-20.2 38.7-17.5 38.7-13.05L38.7-13.05Q38.7-8.6 40.52-5.9 42.35-3.2 46-3.2L46-3.2ZM79.55-26.7Q82.95-26.7 85.34-24.9 87.75-23.1 88.97-20 90.2-16.9 90.2-13L90.2-13Q90.2-9.1 88.77-6.03 87.34-2.95 84.67-1.2 82 0.55 78.34 0.55L78.34 0.55Q76.5 0.55 74.9 0.15 73.3-0.25 71.5-1L71.5-1 71.5 0 67.09 0 67.09-37.7 71.5-37.7 71.5-23.3Q74.75-26.7 79.55-26.7L79.55-26.7ZM77.9-3.35Q81.5-3.35 83.47-6.05 85.45-8.75 85.45-13L85.45-13Q85.45-17.25 83.92-19.95 82.4-22.65 79.15-22.65L79.15-22.65Q76.84-22.65 75.02-21.7 73.2-20.75 71.5-18.9L71.5-18.9 71.5-4.35Q74.75-3.35 77.9-3.35L77.9-3.35ZM98.79 0L98.79-37.7 103.19-37.7 103.19 0 98.79 0ZM124.54-26.7L126.09-26.7 126.09-21.85 125.34-21.85Q122.99-21.85 121.12-21 119.24-20.15 117.99-18.55L117.99-18.55 117.99 0 113.59 0 113.59-20.3 112.49-26.1 116.89-26.1 117.79-21.45Q119.84-24.45 121.27-25.58 122.69-26.7 124.54-26.7L124.54-26.7Z" opacity="1" transform="matrix(1,0,0,1,0,0)" fill="#ffffff" class="wordmark-text-0" data-fill-palette-color="primary" id="text-0"></path></svg></g></svg></g></svg></g></svg></g><g><svg viewBox="0 0 143.1799705774495 143.1799705774495" height="143.1799705774495" width="143.1799705774495"><g><svg></svg></g><g id="icon-0"><svg viewBox="0 0 143.1799705774495 143.1799705774495" height="143.1799705774495" width="143.1799705774495"><g><path d="M0 71.59c0-39.538 32.052-71.59 71.59-71.59 39.538 0 71.59 32.052 71.59 71.59 0 39.538-32.052 71.59-71.59 71.59-39.538 0-71.59-32.052-71.59-71.59zM71.59 132.172c33.458 0 60.582-27.123 60.582-60.582 0-33.458-27.123-60.582-60.582-60.582-33.458 0-60.582 27.123-60.582 60.582 0 33.458 27.123 60.582 60.582 60.582z" data-fill-palette-color="tertiary" fill="#ffffff" stroke="transparent"></path></g><g transform="matrix(1,0,0,1,49.99508352306409,34.369362336556435)"><svg viewBox="0 0 43.18980353132132 74.44124590433663" height="74.44124590433663" width="43.18980353132132"><g><svg xmlns="http://www.w3.org/2000/svg" xmlns:xlink="http://www.w3.org/1999/xlink" version="1.1" x="0" y="0" viewBox="21.679106830508616 1 56.85827385947762 98" enable-background="new 0 0 100 100" xml:space="preserve" height="74.44124590433663" width="43.18980353132132" class="icon-dxe-0" data-fill-palette-color="accent" id="dxe-0"><g fill="#f3a83c" data-fill-palette-color="accent"><path fill-rule="evenodd" clip-rule="evenodd" d="M30.545 28.822C29.38 36.039 30.875 43.672 37.045 47.863 30.758 19.81 45.756 8.664 59.646 1 43.466 24.046 76.542 24.644 78.423 51.13 80.028 73.71 64.507 91.317 46.639 99 46.845 76.175 24.089 73.067 21.801 54.397 20.905 47.094 25.062 33.766 30.545 28.822" fill="#ffffff" data-fill-palette-color="accent"></path></g></svg></g></svg></g></svg></g></svg></g></svg></g><defs></defs></svg><rect width="395.52" height="94.96450562323243" fill="none" stroke="none" visibility="hidden"></rect></g></svg></g></svg>