<svg xmlns="http://www.w3.org/2000/svg" version="1.1" xmlns:xlink="http://www.w3.org/1999/xlink" xmlns:svgjs="http://svgjs.dev/svgjs" width="2000" height="545" viewBox="0 0 2000 545"><g transform="matrix(1,0,0,1,-1.2121212121212466,-1.6289974576018267)"><svg viewBox="0 0 396 108" data-background-color="#ffffff" preserveAspectRatio="xMidYMid meet" height="545" width="2000" xmlns="http://www.w3.org/2000/svg" xmlns:xlink="http://www.w3.org/1999/xlink"><g id="tight-bounds" transform="matrix(1,0,0,1,0.2400000000000091,0.32281050535962663)"><svg viewBox="0 0 395.52 107.33400344904219" height="107.33400344904219" width="395.52"><g><svg viewBox="0 0 596.3337732465228 161.8297210619504" height="107.33400344904219" width="395.52"><g transform="matrix(1,0,0,1,200.81377324652283,0)"><svg viewBox="0 0 395.52 161.8297210619504" height="161.8297210619504" width="395.52"><g id="textblocktransform"><svg viewBox="0 0 395.52 161.8297210619504" height="161.8297210619504" width="395.52" id="textblock"><g><rect width="79.104" height="11.008056309793009" y="150.8523853801722" fill="#f3a83c" data-fill-palette-color="tertiary"></rect><rect width="79.104" height="11.008056309793009" y="150.8523853801722" x="316.416" fill="#f3a83c" data-fill-palette-color="tertiary"></rect></g><g><svg viewBox="0 0 395.52 122.0662046736503" height="122.0662046736503" width="395.52"><g transform="matrix(1,0,0,1,0,0)"><svg width="395.52" viewBox="2 -37.7 124.09 38.300000000000004" height="122.0662046736503" data-palette-color="#f3a83c"><path d="M26.1-34.8L31-34.8 18.7-12.7 18.7 0 14.3 0 14.3-12.7 2-34.8 7.15-34.8 16.5-17.4 26.1-34.8ZM46 0.6Q40.3 0.6 37.1-3.13 33.9-6.85 33.9-13.05L33.9-13.05Q33.9-19.25 37.1-22.98 40.3-26.7 46-26.7L46-26.7Q51.7-26.7 54.9-22.98 58.1-19.25 58.1-13.05L58.1-13.05Q58.1-6.85 54.9-3.13 51.7 0.6 46 0.6L46 0.6ZM46-3.2Q49.65-3.2 51.5-5.9 53.35-8.6 53.35-13.05L53.35-13.05Q53.35-17.5 51.5-20.2 49.65-22.9 46-22.9L46-22.9Q42.35-22.9 40.52-20.2 38.7-17.5 38.7-13.05L38.7-13.05Q38.7-8.6 40.52-5.9 42.35-3.2 46-3.2L46-3.2ZM79.55-26.7Q82.95-26.7 85.34-24.9 87.75-23.1 88.97-20 90.2-16.9 90.2-13L90.2-13Q90.2-9.1 88.77-6.03 87.34-2.95 84.67-1.2 82 0.55 78.34 0.55L78.34 0.55Q76.5 0.55 74.9 0.15 73.3-0.25 71.5-1L71.5-1 71.5 0 67.09 0 67.09-37.7 71.5-37.7 71.5-23.3Q74.75-26.7 79.55-26.7L79.55-26.7ZM77.9-3.35Q81.5-3.35 83.47-6.05 85.45-8.75 85.45-13L85.45-13Q85.45-17.25 83.92-19.95 82.4-22.65 79.15-22.65L79.15-22.65Q76.84-22.65 75.02-21.7 73.2-20.75 71.5-18.9L71.5-18.9 71.5-4.35Q74.75-3.35 77.9-3.35L77.9-3.35ZM98.79 0L98.79-37.7 103.19-37.7 103.19 0 98.79 0ZM124.54-26.7L126.09-26.7 126.09-21.85 125.34-21.85Q122.99-21.85 121.12-21 119.24-20.15 117.99-18.55L117.99-18.55 117.99 0 113.59 0 113.59-20.3 112.49-26.1 116.89-26.1 117.79-21.45Q119.84-24.45 121.27-25.58 122.69-26.7 124.54-26.7L124.54-26.7Z" opacity="1" transform="matrix(1,0,0,1,0,0)" fill="#f3a83c" class="wordmark-text-0" data-fill-palette-color="primary" id="text-0"></path></svg></g></svg></g><g transform="matrix(1,0,0,1,79.104,150.88310600818699)"><svg viewBox="0 0 237.31199999999998 10.94661505376344" height="10.94661505376344" width="237.31199999999998"><g transform="matrix(1,0,0,1,8,0)"><svg width="221.31199999999998" viewBox="0.49 -36.84 976.22 48.290000000000006" height="10.94661505376344" data-palette-color="#f3a83c"><path d="M30.81-33.54L30.81-31.4 28.1-30.91 18.04-14.26 18.04-3.44Q18.04-3.08 18.31-2.73 18.58-2.39 19.09-2.34L19.09-2.34 22.29-2.15 22.29 0 8.79 0 8.79-2.15 11.89-2.34Q12.43-2.39 12.71-2.73 12.99-3.08 12.99-3.44L12.99-3.44 12.99-13.5 3.39-30.81 0.49-31.4 0.49-33.54 12.35-33.54 12.35-31.4 9.84-31.15Q9.16-31.05 9.16-30.57L9.16-30.57Q9.16-30.32 9.25-30.15L9.25-30.15 16.31-17.09 24.05-30Q24.15-30.18 24.15-30.35L24.15-30.35Q24.15-30.96 23.46-31.05L23.46-31.05 20.65-31.4 20.65-33.54 30.81-33.54ZM56.78-12.01L56.78-12.01Q56.78-8.47 55.32-5.6 53.85-2.73 51.18-1.06 48.51 0.61 44.85 0.61L44.85 0.61Q41.21 0.61 38.55-1.05 35.89-2.71 34.45-5.57 33.01-8.42 33.01-12.01L33.01-12.01Q33.01-15.58 34.46-18.46 35.91-21.34 38.61-23.02 41.31-24.71 44.99-24.71L44.99-24.71Q48.73-24.71 51.36-23 54-21.29 55.39-18.41 56.78-15.53 56.78-12.01ZM51.58-12.06L51.58-12.06Q51.58-14.79 50.86-17.16 50.14-19.53 48.67-21 47.19-22.46 44.94-22.46L44.94-22.46Q42.62-22.46 41.15-21 39.67-19.53 38.96-17.16 38.25-14.79 38.25-12.06L38.25-12.06Q38.25-9.35 38.97-6.97 39.69-4.59 41.17-3.13 42.65-1.66 44.89-1.66L44.89-1.66Q47.19-1.66 48.67-3.13 50.14-4.59 50.86-6.96 51.58-9.33 51.58-12.06ZM85.88-1.95L85.88 0 77.95 0 77.95-2.86Q77.09-2.2 75.78-1.39 74.46-0.59 72.94 0.01 71.43 0.61 69.94 0.61L69.94 0.61Q66.72 0.61 64.88-1.33 63.03-3.27 63.03-7.5L63.03-7.5 63.03-21.04 59.54-21.04 59.54-22.75 65.69-24.71 67.7-24.71 67.7-8.45Q67.7-5.79 68.78-4.3 69.87-2.81 72.53-2.81L72.53-2.81Q74.07-2.81 75.56-3.33 77.05-3.86 77.95-4.3L77.95-4.3 77.95-21.04 74.43-21.04 74.43-22.75 80.54-24.71 82.59-24.71 82.59-3.2Q82.59-2.73 82.92-2.44 83.25-2.15 83.69-2.1L83.69-2.1 85.88-1.95ZM105.97-23.95L105.97-18.99 104.02-18.99Q103.56-19.56 102.91-19.96 102.26-20.36 101.34-20.36L101.34-20.36Q100.14-20.36 98.88-19.53 97.62-18.7 96.33-17.26L96.33-17.26 96.33-3.2Q96.33-2.15 97.38-2.1L97.38-2.1 100.68-1.95 100.68 0 88.18 0 88.18-1.9 90.64-2.1Q91.08-2.15 91.39-2.44 91.69-2.73 91.69-3.2L91.69-3.2 91.69-20.56 88.08-20.56 88.08-22.19 94.28-24.1 96.33-24.1 96.33-19.65Q97.06-20.46 98.16-21.66 99.26-22.85 100.51-23.78 101.75-24.71 102.92-24.71L102.92-24.71Q103.7-24.71 104.61-24.46 105.51-24.22 105.97-23.95L105.97-23.95ZM148.45-33.84L148.45-33.84Q148.45-32.84 147.95-32.26 147.45-31.69 146.89-31.45 146.33-31.2 146.13-31.15L146.13-31.15Q146.06-31.23 145.36-31.71 144.67-32.2 143.8-32.81 142.93-33.42 142.26-33.9 141.59-34.38 141.54-34.4L141.54-34.4Q140.47-33.84 139.53-32.13 138.59-30.42 138.59-26.9L138.59-26.9 138.59-23.71 144.79-23.71 144.79-21.14 138.59-21.14 138.59-3.2Q138.59-2.73 138.89-2.43 139.2-2.12 139.64-2.1L139.64-2.1 142.59-1.95 142.59 0 130.43 0 130.43-1.95 132.9-2.1Q133.34-2.15 133.64-2.44 133.95-2.73 133.95-3.2L133.95-3.2 133.95-21.14 130.75-21.14 130.75-22.9 133.95-23.8Q133.95-26.27 134.33-27.89 134.7-29.52 135.63-31.3L135.63-31.3Q137.1-34.13 139.4-35.49 141.71-36.84 144.15-36.84L144.15-36.84Q146.28-36.84 147.36-35.95 148.45-35.06 148.45-33.84ZM172.69-1.95L172.69 0 164.76 0 164.76-2.86Q163.9-2.2 162.58-1.39 161.26-0.59 159.75 0.01 158.24 0.61 156.75 0.61L156.75 0.61Q153.53 0.61 151.68-1.33 149.84-3.27 149.84-7.5L149.84-7.5 149.84-21.04 146.35-21.04 146.35-22.75 152.5-24.71 154.5-24.71 154.5-8.45Q154.5-5.79 155.59-4.3 156.67-2.81 159.34-2.81L159.34-2.81Q160.87-2.81 162.36-3.33 163.85-3.86 164.76-4.3L164.76-4.3 164.76-21.04 161.24-21.04 161.24-22.75 167.34-24.71 169.39-24.71 169.39-3.2Q169.39-2.73 169.72-2.44 170.05-2.15 170.49-2.1L170.49-2.1 172.69-1.95ZM190.39-3.05L190.39-3.05 190.39-1.05Q190.39-1.05 189.45-0.63 188.51-0.22 186.98 0.2 185.46 0.61 183.65 0.61L183.65 0.61Q180.84 0.61 179.56-0.72 178.28-2.05 178.28-5L178.28-5 178.28-21.61 175.08-21.61 175.08-23.24 178.5-24.85 180.74-30.15 182.94-30.15 182.94-24.1 190-24.1 190-21.61 182.94-21.61 182.94-7.64Q182.94-4.66 183.94-3.43 184.94-2.2 186.95-2.2L186.95-2.2Q188.41-2.2 189.4-2.62 190.39-3.05 190.39-3.05ZM218.12-1.95L218.12 0 210.19 0 210.19-2.86Q209.33-2.2 208.01-1.39 206.69-0.59 205.18 0.01 203.67 0.61 202.18 0.61L202.18 0.61Q198.95 0.61 197.11-1.33 195.27-3.27 195.27-7.5L195.27-7.5 195.27-21.04 191.78-21.04 191.78-22.75 197.93-24.71 199.93-24.71 199.93-8.45Q199.93-5.79 201.02-4.3 202.1-2.81 204.77-2.81L204.77-2.81Q206.3-2.81 207.79-3.33 209.28-3.86 210.19-4.3L210.19-4.3 210.19-21.04 206.67-21.04 206.67-22.75 212.77-24.71 214.82-24.71 214.82-3.2Q214.82-2.73 215.15-2.44 215.48-2.15 215.92-2.1L215.92-2.1 218.12-1.95ZM238.21-23.95L238.21-18.99 236.26-18.99Q235.79-19.56 235.15-19.96 234.5-20.36 233.57-20.36L233.57-20.36Q232.37-20.36 231.12-19.53 229.86-18.7 228.57-17.26L228.57-17.26 228.57-3.2Q228.57-2.15 229.62-2.1L229.62-2.1 232.91-1.95 232.91 0 220.41 0 220.41-1.9 222.88-2.1Q223.32-2.15 223.62-2.44 223.93-2.73 223.93-3.2L223.93-3.2 223.93-20.56 220.31-20.56 220.31-22.19 226.52-24.1 228.57-24.1 228.57-19.65Q229.3-20.46 230.4-21.66 231.5-22.85 232.74-23.78 233.99-24.71 235.16-24.71L235.16-24.71Q235.94-24.71 236.84-24.46 237.75-24.22 238.21-23.95L238.21-23.95ZM261.52-5.54L261.52-2.49Q259.42-1.2 256.99-0.29 254.56 0.61 252.03 0.61L252.03 0.61Q249 0.61 246.35-0.74 243.7-2.1 242.06-4.86 240.43-7.62 240.43-11.79L240.43-11.79Q240.43-15.7 241.94-18.6 243.46-21.51 246.12-23.11 248.78-24.71 252.17-24.71L252.17-24.71Q256.84-24.71 259.18-21.81 261.52-18.92 261.52-14.45L261.52-14.45Q261.52-14.21 261.52-13.81 261.52-13.4 261.47-13.06L261.47-13.06 245.26-13.06Q245.26-11.16 245.67-9.27 246.07-7.37 247.02-5.83 247.97-4.3 249.58-3.37 251.2-2.44 253.61-2.44L253.61-2.44Q255.76-2.44 257.8-3.43 259.84-4.42 261.52-5.54L261.52-5.54ZM245.53-15.31L256.52-15.31 256.52-16.41Q256.52-18.87 255.33-20.56 254.15-22.24 251.66-22.24L251.66-22.24Q249.19-22.24 247.46-20.39 245.73-18.53 245.53-15.31L245.53-15.31ZM296.63-32.35L296.63-32.35Q296.63-31.08 295.75-30.16 294.87-29.25 293.6-29.25L293.6-29.25Q292.33-29.25 291.41-30.16 290.5-31.08 290.5-32.35L290.5-32.35Q290.5-33.64 291.41-34.52 292.33-35.4 293.6-35.4L293.6-35.4Q294.87-35.4 295.75-34.52 296.63-33.64 296.63-32.35ZM299.19-1.95L299.19 0 287.45 0 287.45-1.95 289.89-2.1Q290.94-2.17 290.94-3.2L290.94-3.2 290.94-21.04 287.49-21.04 287.49-22.8 293.6-24.71 295.58-24.71 295.58-3.2Q295.58-2.73 295.88-2.44 296.19-2.15 296.63-2.1L296.63-2.1 299.19-1.95ZM319.08-7.25L319.08-7.25Q319.08-3.56 316.54-1.48 314.01 0.61 309.54 0.61L309.54 0.61Q307.24 0.61 305.3 0.13 303.36-0.34 302.6-0.66L302.6-0.66 302.6-7.3 305.14-7.3 305.75-3.05Q306.51-2.56 307.62-2.11 308.73-1.66 310.2-1.66L310.2-1.66Q312.35-1.66 313.52-2.86 314.69-4.05 314.69-5.54L314.69-5.54Q314.69-7.52 313.27-8.53 311.86-9.55 309.24-10.79L309.24-10.79 308.59-11.11Q305.85-12.4 304.4-13.81 302.95-15.21 302.95-17.46L302.95-17.46Q302.95-20.8 305.29-22.75 307.63-24.71 311.95-24.71L311.95-24.71Q314.15-24.71 315.87-24.3 317.59-23.9 318.35-23.56L318.35-23.56 318.35-17.65 315.74-17.65 315.35-21.14Q314.81-21.56 313.76-21.92 312.71-22.29 311.54-22.29L311.54-22.29Q309.49-22.29 308.49-21.35 307.49-20.41 307.49-18.95L307.49-18.95Q307.49-17.26 308.7-16.27 309.9-15.28 313.08-13.84L313.08-13.84Q315.69-12.65 317.39-11.17 319.08-9.69 319.08-7.25ZM368.79-12.01L368.79-12.01Q368.79-8.47 367.32-5.6 365.86-2.73 363.18-1.06 360.51 0.61 356.85 0.61L356.85 0.61Q353.21 0.61 350.55-1.05 347.89-2.71 346.45-5.57 345.01-8.42 345.01-12.01L345.01-12.01Q345.01-15.58 346.46-18.46 347.91-21.34 350.61-23.02 353.31-24.71 356.99-24.71L356.99-24.71Q360.73-24.71 363.37-23 366-21.29 367.39-18.41 368.79-15.53 368.79-12.01ZM363.59-12.06L363.59-12.06Q363.59-14.79 362.87-17.16 362.15-19.53 360.67-21 359.19-22.46 356.94-22.46L356.94-22.46Q354.63-22.46 353.15-21 351.67-19.53 350.96-17.16 350.26-14.79 350.26-12.06L350.26-12.06Q350.26-9.35 350.98-6.97 351.7-4.59 353.17-3.13 354.65-1.66 356.9-1.66L356.9-1.66Q359.19-1.66 360.67-3.13 362.15-4.59 362.87-6.96 363.59-9.33 363.59-12.06ZM397.84-1.95L397.84 0 386.8 0 386.8-1.95 388.9-2.1Q389.34-2.15 389.65-2.44 389.95-2.73 389.95-3.2L389.95-3.2 389.95-16.21Q389.95-18.58 388.85-19.81 387.75-21.04 385.14-21.04L385.14-21.04Q383.72-21.04 382.32-20.64 380.92-20.24 379.65-19.6L379.65-19.6 379.65-3.2Q379.65-2.17 380.7-2.1L380.7-2.1 382.8-1.95 382.8 0 371.49 0 371.49-1.95 373.93-2.1Q374.98-2.17 374.98-3.2L374.98-3.2 374.98-20.56 371.49-20.56 371.49-22.19 377.6-24.1 379.65-24.1 379.65-21.61Q381.75-22.8 383.96-23.75 386.17-24.71 387.9-24.71L387.9-24.71Q391.17-24.71 392.88-22.67 394.59-20.63 394.59-16.99L394.59-16.99 394.59-3.2Q394.59-2.73 394.89-2.44 395.2-2.15 395.64-2.1L395.64-2.1 397.84-1.95ZM421.64-5.54L421.64-2.49Q419.54-1.2 417.11-0.29 414.68 0.61 412.14 0.61L412.14 0.61Q409.11 0.61 406.46-0.74 403.81-2.1 402.18-4.86 400.54-7.62 400.54-11.79L400.54-11.79Q400.54-15.7 402.06-18.6 403.57-21.51 406.23-23.11 408.89-24.71 412.29-24.71L412.29-24.71Q416.95-24.71 419.29-21.81 421.64-18.92 421.64-14.45L421.64-14.45Q421.64-14.21 421.64-13.81 421.64-13.4 421.59-13.06L421.59-13.06 405.38-13.06Q405.38-11.16 405.78-9.27 406.18-7.37 407.14-5.83 408.09-4.3 409.7-3.37 411.31-2.44 413.73-2.44L413.73-2.44Q415.88-2.44 417.91-3.43 419.95-4.42 421.64-5.54L421.64-5.54ZM405.65-15.31L416.63-15.31 416.63-16.41Q416.63-18.87 415.45-20.56 414.26-22.24 411.77-22.24L411.77-22.24Q409.31-22.24 407.57-20.39 405.84-18.53 405.65-15.31L405.65-15.31ZM464.04-7.25L464.04-7.25Q464.04-3.56 461.5-1.48 458.96 0.61 454.49 0.61L454.49 0.61Q452.2 0.61 450.26 0.13 448.32-0.34 447.56-0.66L447.56-0.66 447.56-7.3 450.1-7.3 450.71-3.05Q451.47-2.56 452.58-2.11 453.69-1.66 455.15-1.66L455.15-1.66Q457.3-1.66 458.47-2.86 459.64-4.05 459.64-5.54L459.64-5.54Q459.64-7.52 458.23-8.53 456.81-9.55 454.2-10.79L454.2-10.79 453.54-11.11Q450.81-12.4 449.35-13.81 447.9-15.21 447.9-17.46L447.9-17.46Q447.9-20.8 450.25-22.75 452.59-24.71 456.91-24.71L456.91-24.71Q459.11-24.71 460.83-24.3 462.55-23.9 463.31-23.56L463.31-23.56 463.31-17.65 460.69-17.65 460.3-21.14Q459.77-21.56 458.72-21.92 457.67-22.29 456.5-22.29L456.5-22.29Q454.44-22.29 453.44-21.35 452.44-20.41 452.44-18.95L452.44-18.95Q452.44-17.26 453.65-16.27 454.86-15.28 458.03-13.84L458.03-13.84Q460.65-12.65 462.34-11.17 464.04-9.69 464.04-7.25ZM504.39-24.1L504.39-22.14 501.85-21.85 494.99 0 491.45 0 485.55-18.7 478.95 0 475.39 0 468.99-21.85 466.23-22.14 466.23-24.1 477.2-24.1 477.2-22.14 474.85-22Q474.07-21.92 474.07-21.17L474.07-21.17Q474.07-21 474.1-20.9L474.1-20.9 478.25-5.35 484.69-24.1 488.26-24.1 494.04-5.35 498.66-20.9Q498.68-20.97 498.68-21.14L498.68-21.14Q498.68-21.46 498.49-21.72 498.29-21.97 497.95-22L497.95-22 495.65-22.14 495.65-24.1 504.39-24.1ZM515.79-32.35L515.79-32.35Q515.79-31.08 514.91-30.16 514.03-29.25 512.76-29.25L512.76-29.25Q511.5-29.25 510.58-30.16 509.66-31.08 509.66-32.35L509.66-32.35Q509.66-33.64 510.58-34.52 511.5-35.4 512.76-35.4L512.76-35.4Q514.03-35.4 514.91-34.52 515.79-33.64 515.79-32.35ZM518.36-1.95L518.36 0 506.61 0 506.61-1.95 509.05-2.1Q510.1-2.17 510.1-3.2L510.1-3.2 510.1-21.04 506.66-21.04 506.66-22.8 512.76-24.71 514.74-24.71 514.74-3.2Q514.74-2.73 515.05-2.44 515.35-2.15 515.79-2.1L515.79-2.1 518.36-1.95ZM546.31-12.4L546.31-12.4Q546.31-8.47 544.79-5.54 543.28-2.61 540.45-1 537.62 0.61 533.66 0.61L533.66 0.61Q532.76 0.61 531.72 0.49 530.68 0.37 529.95 0.26 529.22 0.15 529.22 0.15L529.22 0.15 529.22 7.59Q529.22 8.06 529.53 8.33 529.85 8.59 530.32 8.64L530.32 8.64 533.27 8.96 533.27 10.89 521.11 10.89 521.11 8.96 523.5 8.64Q524.55 8.57 524.55 7.59L524.55 7.59 524.55-20.56 521.11-20.56 521.11-22.19 527.26-24.1 529.22-24.1 529.22-21.61Q529.22-21.61 529.84-22.07 530.46-22.53 531.52-23.16 532.59-23.78 533.94-24.24 535.3-24.71 536.76-24.71L536.76-24.71Q539.35-24.71 541.51-23.18 543.67-21.66 544.99-18.9 546.31-16.14 546.31-12.4ZM541.3-11.69L541.3-11.69Q541.3-14.28 540.51-16.43 539.72-18.58 538.17-19.89 536.61-21.19 534.32-21.19L534.32-21.19Q533.07-21.19 531.9-20.83 530.73-20.46 529.97-20.08 529.22-19.7 529.22-19.7L529.22-19.7 529.22-2.49Q529.22-2.49 530.47-2.1 531.73-1.71 533.27-1.71L533.27-1.71Q536.03-1.71 537.8-3.13 539.57-4.54 540.44-6.82 541.3-9.11 541.3-11.69ZM570.82-5.54L570.82-2.49Q568.72-1.2 566.29-0.29 563.86 0.61 561.32 0.61L561.32 0.61Q558.29 0.61 555.64-0.74 552.99-2.1 551.36-4.86 549.72-7.62 549.72-11.79L549.72-11.79Q549.72-15.7 551.24-18.6 552.75-21.51 555.41-23.11 558.07-24.71 561.47-24.71L561.47-24.71Q566.13-24.71 568.47-21.81 570.82-18.92 570.82-14.45L570.82-14.45Q570.82-14.21 570.82-13.81 570.82-13.4 570.77-13.06L570.77-13.06 554.56-13.06Q554.56-11.16 554.96-9.27 555.36-7.37 556.31-5.83 557.27-4.3 558.88-3.37 560.49-2.44 562.91-2.44L562.91-2.44Q565.05-2.44 567.09-3.43 569.13-4.42 570.82-5.54L570.82-5.54ZM554.83-15.31L565.81-15.31 565.81-16.41Q565.81-18.87 564.63-20.56 563.44-22.24 560.95-22.24L560.95-22.24Q558.49-22.24 556.75-20.39 555.02-18.53 554.83-15.31L554.83-15.31ZM619.64-1.95L619.64 0 612.24 0 611.58-2.95Q611.58-2.95 610.84-2.42 610.09-1.88 608.87-1.17 607.65-0.46 606.18 0.07 604.7 0.61 603.23 0.61L603.23 0.61Q600.52 0.61 598.63-1.2 596.74-3 596.74-6.15L596.74-6.15Q596.74-7.54 597.24-8.74 597.74-9.94 599.24-11.02 600.74-12.11 603.71-13.15 606.68-14.18 611.58-15.26L611.58-15.26 611.58-17.41Q611.58-22.34 606.92-22.34L606.92-22.34Q605.63-22.34 604.69-22.09 603.75-21.85 603.38-21.7L603.38-21.7 603.38-17.36 599.74-17.36Q599.06-17.36 598.47-17.61 597.89-17.87 597.89-18.8L597.89-18.8Q597.89-20.85 599.45-22.16 601.01-23.46 603.42-24.08 605.82-24.71 608.29-24.71L608.29-24.71Q611.39-24.71 613.1-23.74 614.81-22.78 615.49-21.08 616.17-19.38 616.17-17.21L616.17-17.21 616.17-3.2Q616.17-2.73 616.48-2.44 616.78-2.15 617.22-2.1L617.22-2.1 619.64-1.95ZM611.58-4.71L611.58-4.71 611.58-13.35Q608.21-12.52 606.22-11.68 604.23-10.84 603.26-10 602.28-9.16 601.98-8.29 601.67-7.42 601.67-6.49L601.67-6.49Q601.67-4.96 602.66-3.65 603.65-2.34 605.43-2.34L605.43-2.34Q606.43-2.34 607.51-2.7 608.58-3.05 609.51-3.53 610.44-4 611.01-4.36 611.58-4.71 611.58-4.71ZM659.11-24.1L659.11-22.14 656.58-21.85 649.72 0 646.18 0 640.27-18.7 633.68 0 630.11 0 623.71-21.85 620.96-22.14 620.96-24.1 631.92-24.1 631.92-22.14 629.57-22Q628.79-21.92 628.79-21.17L628.79-21.17Q628.79-21 628.82-20.9L628.82-20.9 632.97-5.35 639.41-24.1 642.98-24.1 648.76-5.35 653.38-20.9Q653.4-20.97 653.4-21.14L653.4-21.14Q653.4-21.46 653.21-21.72 653.01-21.97 652.67-22L652.67-22 650.37-22.14 650.37-24.1 659.11-24.1ZM684.23-1.95L684.23 0 676.84 0 676.18-2.95Q676.18-2.95 675.43-2.42 674.69-1.88 673.47-1.17 672.25-0.46 670.77 0.07 669.29 0.61 667.83 0.61L667.83 0.61Q665.12 0.61 663.23-1.2 661.33-3 661.33-6.15L661.33-6.15Q661.33-7.54 661.83-8.74 662.33-9.94 663.84-11.02 665.34-12.11 668.3-13.15 671.27-14.18 676.18-15.26L676.18-15.26 676.18-17.41Q676.18-22.34 671.51-22.34L671.51-22.34Q670.22-22.34 669.28-22.09 668.34-21.85 667.97-21.7L667.97-21.7 667.97-17.36 664.34-17.36Q663.65-17.36 663.07-17.61 662.48-17.87 662.48-18.8L662.48-18.8Q662.48-20.85 664.04-22.16 665.61-23.46 668.01-24.08 670.42-24.71 672.88-24.71L672.88-24.71Q675.98-24.71 677.69-23.74 679.4-22.78 680.08-21.08 680.77-19.38 680.77-17.21L680.77-17.21 680.77-3.2Q680.77-2.73 681.07-2.44 681.38-2.15 681.82-2.1L681.82-2.1 684.23-1.95ZM676.18-4.71L676.18-4.71 676.18-13.35Q672.81-12.52 670.82-11.68 668.83-10.84 667.85-10 666.88-9.16 666.57-8.29 666.27-7.42 666.27-6.49L666.27-6.49Q666.27-4.96 667.25-3.65 668.24-2.34 670.03-2.34L670.03-2.34Q671.03-2.34 672.1-2.7 673.17-3.05 674.1-3.53 675.03-4 675.6-4.36 676.18-4.71 676.18-4.71ZM711.06-24.1L711.06-22.14 708.45-21.85 698.86 1.54Q698.54 2.34 697.87 3.85 697.2 5.35 696.28 6.92 695.36 8.5 694.31 9.55L694.31 9.55Q693.41 10.45 692.33 10.95 691.24 11.45 689.97 11.45L689.97 11.45Q688.19 11.45 687.25 10.58 686.31 9.72 686.31 8.59L686.31 8.59Q686.31 6.93 687.92 5.59L687.92 5.59 692.61 7.74Q693.44 6.91 694.27 5.49 695.1 4.08 695.77 2.56 696.44 1.05 696.8-0.05L696.8-0.05 688.31-21.85 685.55-22.14 685.55-24.1 696.61-24.1 696.61-22.14 694.22-22Q693.41-21.92 693.41-21.19L693.41-21.19Q693.41-21 693.46-20.9L693.46-20.9 699.27-6.15 705.2-20.9Q705.28-21.04 705.28-21.22L705.28-21.22Q705.28-21.95 704.52-22L704.52-22 702.15-22.14 702.15-24.1 711.06-24.1ZM772.7-24.1L772.7-22.14 770.16-21.85 763.3 0 759.76 0 753.86-18.7 747.26 0 743.7 0 737.3-21.85 734.54-22.14 734.54-24.1 745.51-24.1 745.51-22.14 743.16-22Q742.38-21.92 742.38-21.17L742.38-21.17Q742.38-21 742.41-20.9L742.41-20.9 746.56-5.35 753-24.1 756.57-24.1 762.35-5.35 766.97-20.9Q766.99-20.97 766.99-21.14L766.99-21.14Q766.99-21.46 766.8-21.72 766.6-21.97 766.26-22L766.26-22 763.96-22.14 763.96-24.1 772.7-24.1ZM784.1-32.35L784.1-32.35Q784.1-31.08 783.22-30.16 782.34-29.25 781.07-29.25L781.07-29.25Q779.81-29.25 778.89-30.16 777.97-31.08 777.97-32.35L777.97-32.35Q777.97-33.64 778.89-34.52 779.81-35.4 781.07-35.4L781.07-35.4Q782.34-35.4 783.22-34.52 784.1-33.64 784.1-32.35ZM786.67-1.95L786.67 0 774.92 0 774.92-1.95 777.36-2.1Q778.41-2.17 778.41-3.2L778.41-3.2 778.41-21.04 774.97-21.04 774.97-22.8 781.07-24.71 783.05-24.71 783.05-3.2Q783.05-2.73 783.36-2.44 783.66-2.15 784.1-2.1L784.1-2.1 786.67-1.95ZM805.02-3.05L805.02-3.05 805.02-1.05Q805.02-1.05 804.08-0.63 803.14-0.22 801.62 0.2 800.09 0.61 798.28 0.61L798.28 0.61Q795.48 0.61 794.19-0.72 792.91-2.05 792.91-5L792.91-5 792.91-21.61 789.71-21.61 789.71-23.24 793.13-24.85 795.38-30.15 797.58-30.15 797.58-24.1 804.63-24.1 804.63-21.61 797.58-21.61 797.58-7.64Q797.58-4.66 798.58-3.43 799.58-2.2 801.58-2.2L801.58-2.2Q803.04-2.2 804.03-2.62 805.02-3.05 805.02-3.05ZM832.9-1.95L832.9 0 821.77 0 821.77-1.95 823.82-2.1Q824.26-2.15 824.59-2.44 824.92-2.73 824.92-3.2L824.92-3.2 824.92-16.09Q824.92-18.24 823.89-19.64 822.87-21.04 819.96-21.04L819.96-21.04Q818.64-21.04 817.12-20.63 815.59-20.21 814.52-19.6L814.52-19.6 814.52-3.2Q814.52-2.17 815.52-2.1L815.52-2.1 817.67-1.95 817.67 0 806.41 0 806.41-1.95 808.8-2.1Q809.85-2.17 809.85-3.2L809.85-3.2 809.85-33.25 806.12-33.25 806.12-34.91 812.52-36.84 814.52-36.84 814.52-21.61Q815.42-22.17 816.86-22.89 818.3-23.61 819.89-24.16 821.48-24.71 822.77-24.71L822.77-24.71Q825.65-24.71 827.6-22.85 829.56-21 829.56-17.14L829.56-17.14 829.56-3.2Q829.56-2.73 829.89-2.44 830.22-2.15 830.65-2.1L830.65-2.1 832.9-1.95ZM887.39-33.54L887.39-31.4 884.68-30.91 874.62-14.26 874.62-3.44Q874.62-3.08 874.89-2.73 875.16-2.39 875.67-2.34L875.67-2.34 878.87-2.15 878.87 0 865.37 0 865.37-2.15 868.47-2.34Q869-2.39 869.29-2.73 869.57-3.08 869.57-3.44L869.57-3.44 869.57-13.5 859.97-30.81 857.07-31.4 857.07-33.54 868.93-33.54 868.93-31.4 866.42-31.15Q865.73-31.05 865.73-30.57L865.73-30.57Q865.73-30.32 865.83-30.15L865.83-30.15 872.89-17.09 880.63-30Q880.72-30.18 880.72-30.35L880.72-30.35Q880.72-30.96 880.04-31.05L880.04-31.05 877.23-31.4 877.23-33.54 887.39-33.54ZM913.36-12.01L913.36-12.01Q913.36-8.47 911.9-5.6 910.43-2.73 907.76-1.06 905.09 0.61 901.42 0.61L901.42 0.61Q897.79 0.61 895.12-1.05 892.46-2.71 891.02-5.57 889.58-8.42 889.58-12.01L889.58-12.01Q889.58-15.58 891.04-18.46 892.49-21.34 895.19-23.02 897.88-24.71 901.57-24.71L901.57-24.71Q905.31-24.71 907.94-23 910.58-21.29 911.97-18.41 913.36-15.53 913.36-12.01ZM908.16-12.06L908.16-12.06Q908.16-14.79 907.44-17.16 906.72-19.53 905.24-21 903.77-22.46 901.52-22.46L901.52-22.46Q899.2-22.46 897.72-21 896.25-19.53 895.54-17.16 894.83-14.79 894.83-12.06L894.83-12.06Q894.83-9.35 895.55-6.97 896.27-4.59 897.75-3.13 899.23-1.66 901.47-1.66L901.47-1.66Q903.77-1.66 905.24-3.13 906.72-4.59 907.44-6.96 908.16-9.33 908.16-12.06ZM941.12-13.21L941.12-13.21Q941.12-9.45 939.63-6.46 938.14-3.47 934.97-1.73 931.79 0 926.76 0L926.76 0 919.56 0 919.56-33.25 915.78-33.25 915.78-34.91 922.22-36.84 924.22-36.84 924.22-22.85Q925.08-23.27 926.99-23.99 928.91-24.71 931.11-24.71L931.11-24.71Q934.4-24.71 936.63-23.12 938.85-21.53 939.98-18.91 941.12-16.28 941.12-13.21ZM936.02-12.21L936.02-12.21Q936.02-16.94 934.01-19.35 932.01-21.75 928.37-21.75L928.37-21.75Q927.54-21.75 926.26-21.48 924.98-21.22 924.22-20.95L924.22-20.95 924.22-2.39Q924.22-2.39 925.09-2.37 925.96-2.34 926.67-2.34L926.67-2.34Q931.11-2.34 933.56-4.54 936.02-6.74 936.02-12.21ZM956.33-1.95L956.33 0 944.17 0 944.17-1.95 946.83-2.1Q947.17-2.1 947.55-2.47 947.93-2.83 947.93-3.15L947.93-3.15 947.93-33.25 944.12-33.25 944.12-34.91 950.52-36.84 952.57-36.84 952.57-3.15Q952.57-2.83 952.93-2.47 953.3-2.1 953.62-2.1L953.62-2.1 956.33-1.95ZM976.71-23.95L976.71-18.99 974.76-18.99Q974.29-19.56 973.65-19.96 973-20.36 972.07-20.36L972.07-20.36Q970.87-20.36 969.62-19.53 968.36-18.7 967.07-17.26L967.07-17.26 967.07-3.2Q967.07-2.15 968.12-2.1L968.12-2.1 971.41-1.95 971.41 0 958.91 0 958.91-1.9 961.38-2.1Q961.82-2.15 962.12-2.44 962.43-2.73 962.43-3.2L962.43-3.2 962.43-20.56 958.81-20.56 958.81-22.19 965.01-24.1 967.07-24.1 967.07-19.65Q967.8-20.46 968.9-21.66 970-22.85 971.24-23.78 972.49-24.71 973.66-24.71L973.66-24.71Q974.44-24.71 975.34-24.46 976.25-24.22 976.71-23.95L976.71-23.95Z" opacity="1" transform="matrix(1,0,0,1,0,0)" fill="#f3a83c" class="slogan-text-1" data-fill-palette-color="secondary" id="text-1"></path></svg></g></svg></g></svg></g></svg></g><g transform="matrix(1,0,0,1,0,9.324875242250457)"><svg viewBox="0 0 143.1799705774495 143.1799705774495" height="143.1799705774495" width="143.1799705774495"><g><svg></svg></g><g id="icon-0"><svg viewBox="0 0 143.1799705774495 143.1799705774495" height="143.1799705774495" width="143.1799705774495"><g><path d="M0 71.59c0-39.538 32.052-71.59 71.59-71.59 39.538 0 71.59 32.052 71.59 71.59 0 39.538-32.052 71.59-71.59 71.59-39.538 0-71.59-32.052-71.59-71.59zM71.59 132.172c33.458 0 60.582-27.123 60.582-60.582 0-33.458-27.123-60.582-60.582-60.582-33.458 0-60.582 27.123-60.582 60.582 0 33.458 27.123 60.582 60.582 60.582z" data-fill-palette-color="tertiary" fill="#f3a83c" stroke="transparent"></path></g><g transform="matrix(1,0,0,1,49.99508352306409,34.369362336556435)"><svg viewBox="0 0 43.18980353132132 74.44124590433663" height="74.44124590433663" width="43.18980353132132"><g><svg xmlns="http://www.w3.org/2000/svg" xmlns:xlink="http://www.w3.org/1999/xlink" version="1.1" x="0" y="0" viewBox="21.679106830508616 1 56.85827385947762 98" enable-background="new 0 0 100 100" xml:space="preserve" height="74.44124590433663" width="43.18980353132132" class="icon-dxe-0" data-fill-palette-color="accent" id="dxe-0"><g fill="#f3a83c" data-fill-palette-color="accent"><path fill-rule="evenodd" clip-rule="evenodd" d="M30.545 28.822C29.38 36.039 30.875 43.672 37.045 47.863 30.758 19.81 45.756 8.664 59.646 1 43.466 24.046 76.542 24.644 78.423 51.13 80.028 73.71 64.507 91.317 46.639 99 46.845 76.175 24.089 73.067 21.801 54.397 20.905 47.094 25.062 33.766 30.545 28.822" fill="#f3a83c" data-fill-palette-color="accent"></path></g></svg></g></svg></g></svg></g></svg></g></svg></g><defs></defs></svg><rect width="395.52" height="107.33400344904219" fill="none" stroke="none" visibility="hidden"></rect></g></svg></g></svg>